<?xml version="1.0" encoding="utf-8"?>
<!-- Generator: Adobe Illustrator 27.0.0, SVG Export Plug-In . SVG Version: 6.00 Build 0)  -->
<svg version="1.1" xmlns="http://www.w3.org/2000/svg" xmlns:xlink="http://www.w3.org/1999/xlink" x="0px" y="0px"
	 viewBox="0 0 502 206" style="enable-background:new 0 0 502 206;" xml:space="preserve">
<style type="text/css">
	.st0{fill:#94CDE9;stroke:#007198;stroke-width:0.5;}
	.st1{fill:url(#SVGID_1_);stroke:#957966;stroke-width:0.5;stroke-linecap:round;stroke-linejoin:round;}
	
		.st2{fill:url(#SVGID_00000050631827429509401270000014834222027156598446_);stroke:#957966;stroke-width:0.5;stroke-linecap:round;stroke-linejoin:round;}
	.st3{fill:url(#SVGID_00000141429792033435191410000017807801334907048631_);stroke:#007198;stroke-width:0.5;}
	.st4{fill:url(#SVGID_00000111155475790843596440000016165041628165953187_);stroke:#007198;stroke-width:0.5;}
	.st5{fill:url(#SVGID_00000118374311743606163500000004690246613046217612_);stroke:#007198;stroke-width:0.5;}
	.st6{fill:url(#SVGID_00000146488926436818447600000002803965390741441153_);stroke:#007198;stroke-width:0.5;}
	.st7{fill:url(#SVGID_00000086653813176310071680000012642818510679836852_);stroke:#007198;stroke-width:0.5;}
	.st8{fill:#CCB88D;stroke:#957966;stroke-width:0.5;stroke-linecap:round;stroke-linejoin:round;}
	.st9{fill:url(#SVGID_00000047753290650838373780000014989562622484588432_);stroke:#007198;stroke-width:0.5;}
	.st10{fill:url(#SVGID_00000149348290130883236350000015119498482033148573_);stroke:#007198;stroke-width:0.5;}
	
		.st11{fill:url(#SVGID_00000162327947840430532120000005067498590648743333_);stroke:#957966;stroke-width:0.5;stroke-linecap:round;stroke-linejoin:round;}
</style>
<g id="background_00000129195050502936055790000007420200388546462607_">
	<polygon class="st0" points="495.9,28.2 333.6,150.9 87.9,150.9 327.7,16.2 500.2,16.2 	"/>
	
		<linearGradient id="SVGID_1_" gradientUnits="userSpaceOnUse" x1="0.3" y1="657.788" x2="331.5876" y2="657.788" gradientTransform="matrix(1 0 0 1 0 -584)">
		<stop  offset="5.600000e-03" style="stop-color:#89AC7B"/>
		<stop  offset="1" style="stop-color:#A6B586"/>
	</linearGradient>
	<path class="st1" d="M330.4,18.4c0,0,4.8-2.8-4.9-3.3c-7.6-0.4-17-1.1-25.9-2.1c-13.3-1.5-25.7-5-30.7-6
		c-12.5-2.4-24.9-7.7-38.3-6.7c-13.4,1-26.8,7.7-34.5,8.6c-5.2,0.7-124,62.8-126.5,64.3c-9.1,5.3-69.3,48.2-69.3,48.2
		s18.7-4.3,29.7-3.8s16.3,4.8,29.2,11c5.4,2.6,24.2,6.7,35.3,11.2c15.5,6.3,18.3,7.6,18.3,7.6s-0.4-1.9,5.7-8.2
		c1.5-1.6,10.4-4.9,12.8-6.9c4.7-3.9,24.7-15.9,29.6-19.7C161.7,111.9,330.8,18.2,330.4,18.4L330.4,18.4z"/>
	
		<linearGradient id="SVGID_00000160152739464447145770000008338863148641687954_" gradientUnits="userSpaceOnUse" x1="94.0149" y1="665.2488" x2="341.4106" y2="665.2488" gradientTransform="matrix(1 0 0 1 0 -584)">
		<stop  offset="0" style="stop-color:#F0DEAF"/>
		<stop  offset="1" style="stop-color:#F8F0B9"/>
	</linearGradient>
	
		<path style="fill:url(#SVGID_00000160152739464447145770000008338863148641687954_);stroke:#957966;stroke-width:0.5;stroke-linecap:round;stroke-linejoin:round;" d="
		M341.4,16.4c0,0-5.7-0.7-14.9-1.2c-2.8-0.1-7.7,2.9-10.1,2.9s-6.5,3-8.1,4.3c-10.9,8-8.6,11-16.3,14.4c-0.3,0-4.8,1.6-12.9,3.4
		c-2.9,1.3-7.2,3.8-10.1,4.8c-1.6,0.3-7.5,1.3-9.1,2.9c-1.3,1.9-4,3.5-6.2,4.8c-5.8,3.2-2.6-0.3-8.6,3.8c-1,0.6-7.7,9.7-8.6,10.1
		c-3.5,1-8.1,6.7-13.9,6.7c-5.8,0-14.9,2.9-19.6,7.7c-4.8,4.8-27.3,6.7-39.8,20.6c-7.7,8.6-14.6,6.9-27.3,15.3
		c-3.5,2.3-12.8,9.7-17.2,13.2c-3,2.4-11.9,8.1-15.6,9.8c-7.7,3-10.4,5.2-8.5,5.5c7.6,1.4,19,1.9,19,1.9s2.4-0.9,8.5-7.2
		c1.5-1.6,9.1-7.1,15.3-9.8c6.3-2.7,16.4-9.8,20.2-11.3s6.7-4.9,9.8-5.8s5.7-6.3,8.1-8.1c7.1-5.4,13.4-4.2,15.2-5.1
		c6.6-3.2,10.8-4.1,14.7-6.8c4-2.8,8.3-8.5,13.6-9.4s9.2-0.9,12.2-1.3s3.9-2,5.9-2.5c8.7-2.3,18.5-18.2,24-20.5s14.2-5.1,17-5.3
		s5.3-3.8,7.6-3.8c2.3,0,3.8,0,7.7-0.4c1.5-0.2,2.7-1.5,3.8-2c1.8-0.8,3.5-1,6.6-3.4c5.1-3.8,5.9-11.3,8.9-13.2s9.8-3,14-5.1
		C330.8,23.9,341.8,16.1,341.4,16.4L341.4,16.4z"/>
	
		<linearGradient id="SVGID_00000002360019799831930420000015406830791213785014_" gradientUnits="userSpaceOnUse" x1="224.9001" y1="726.3" x2="224.9001" y2="789" gradientTransform="matrix(1 0 0 1 0 -584)">
		<stop  offset="5.600000e-03" style="stop-color:#94CDE9"/>
		<stop  offset="1" style="stop-color:#00A2CF"/>
	</linearGradient>
	<path style="fill:url(#SVGID_00000002360019799831930420000015406830791213785014_);stroke:#007198;stroke-width:0.5;" d="
		M327.3,142.4c0,0-3.5,2.6-6.6,2s-4.8-2.1-4.8-2.1s-3.5,2.5-6,2.2c-2.5-0.4-5.4-2.1-5.4-2.1s-2.3,2.2-5.9,2.1
		c-3.6-0.2-5.4-2.2-5.4-2.2s-3.2,2.4-5.9,2.2c-2.7-0.2-5.5-2-5.5-2s-2,1.9-5.6,2s-5.8-2.2-5.8-2.2s-1.1,1.9-5.1,2.2
		c-4,0.2-6.1-2.2-6.1-2.2s-2.2,2.2-5.8,2.2c-3.6-0.1-5.6-2-5.6-2s-2.8,1.9-5.5,2c-2.7,0.2-5.9-2.2-5.9-2.2s-1.8,2-5.4,2.2
		c-3.6,0.1-5.9-2.1-5.9-2.1s-2.9,1.7-5.4,2.1c-2.5,0.4-6-2.2-6-2.2s-1.7,1.4-4.8,2.1c-3.1,0.6-6.6-2-6.6-2s-2.5,1.7-5.4,2.1
		c-2.9,0.4-6-2.2-6-2.2s-2.5,1.9-5.5,2.2s-5.9-2.2-5.9-2.2s-2.1,1.8-5.4,2.1c-3.3,0.3-5.9-2.1-5.9-2.1s-2.8,1.7-5.4,2.1
		c-2.5,0.4-5.9-2-5.9-2s-2.5,2-5.4,2.1s-6-2.1-6-2.1s-2.1,2-5.5,2.1s-5.7-2.2-5.7-2.2s-2.5,1.7-5.3,2.1c-2.8,0.4-6.2-2.1-6.2-2.1
		s-2.3,1.9-5.5,2.1c-0.2,0-0.3,0-0.5,0V205H333v-61C331,143.3,327.3,142.4,327.3,142.4L327.3,142.4z"/>
	
		<linearGradient id="SVGID_00000070800934709459061020000001587017179257077392_" gradientUnits="userSpaceOnUse" x1="395.2466" y1="670.3329" x2="436.7566" y2="716.4379" gradientTransform="matrix(1 0 0 1 0 -584)">
		<stop  offset="5.600000e-03" style="stop-color:#94CDE9"/>
		<stop  offset="1" style="stop-color:#00A2CF"/>
	</linearGradient>
	<path style="fill:url(#SVGID_00000070800934709459061020000001587017179257077392_);stroke:#007198;stroke-width:0.5;" d="
		M421.5,74.7v0.2c0,0-0.4,2.5-2.7,4.5c-0.1,0.1-0.2,0.2-0.3,0.3c-2.1,1.6-3.4,0-3.4,0l-0.1-0.1v0.1c0,0-1,3.3-3,4.8l-0.1,0.1
		c-2,1.4-3.4,0.3-3.4,0.3l0,0V85c0,0-1.5,3.3-3,4.6c-0.1,0-0.1,0.1-0.2,0.1c-1.5,1.1-3.4,0-3.4,0h-0.1v0.1c0,0-0.8,3-2.8,4.7
		c-0.1,0-0.1,0.1-0.2,0.1c-1.9,1.5-3.4,0.1-3.4,0.1l0,0v0.1c0,0-1.5,3.2-2.9,4.7c-0.1,0.1-0.2,0.2-0.3,0.3c-1.4,1-3.4,0-3.4,0l0,0
		v0.1c0,0-0.9,2.3-2.6,4.4c-0.2,0.2-0.3,0.4-0.5,0.5c-1.6,1.2-3.4,0.2-3.4,0.1l0,0v0.1c0,0-1.3,3-2.9,4.6c-0.1,0.1-0.2,0.2-0.3,0.3
		c-1.5,1.2-3.3-0.1-3.3-0.1l0,0v0.1c0,0-1.2,3.2-2.9,4.8c-0.1,0.1-0.2,0.2-0.3,0.2c-1.6,1.2-3.3,0-3.3,0l0,0v0.1c0,0-1,2.9-2.9,4.7
		c-0.1,0.1-0.2,0.2-0.3,0.2c-1.7,1.3-3.3,0-3.3,0l0,0v0.1c0,0-1.5,3.1-2.9,4.6c-0.1,0.1-0.2,0.2-0.3,0.3c-1.4,1-3.3,0.1-3.3,0l0,0
		v0.1c0,0-1.2,3.3-2.9,4.7l-0.1,0.1c-1.6,1.2-3.5,0.2-3.5,0.2l0,0v0.1c0,0-1,3.1-2.9,4.7l-0.1,0.1c-1.9,1.4-3.4,0-3.4,0l0,0v0.1
		c0,0-1.3,2.9-2.8,4.6c-0.1,0.1-0.2,0.2-0.4,0.3c-1.5,1.1-3.4,0.1-3.4,0.1l0,0v0.1c0,0-1.2,3.1-2.9,4.7V205L500.2,75.2V16.1
		c0,0-1.3,2.6-2.8,3.7c-0.1,0.1-0.3,0.2-0.4,0.2c-1.6,0.7-3.2,0-3.3,0l0,0v0.1c0,0-1.1,3.3-2.9,4.8c0,0-0.1,0-0.1,0.1
		c-2,1.4-3.4,0.1-3.4,0.1l0,0v0.1c0,0-1.5,3.6-3.1,4.8l-0.1,0.1c-1.7,1.1-3.3,0-3.3,0l0,0v0.1c0,0-1.5,3.6-2.8,4.6
		c-0.1,0.1-0.2,0.1-0.3,0.2c-1.5,0.7-3.3,0.1-3.3,0.1l0,0v0.1c0,0-1.1,3.3-2.8,4.6l0,0c-0.1,0.1-0.2,0.1-0.3,0.2
		c-1.9,1.1-3.3,0-3.3,0l0,0v0.1c0,0-1.3,3.5-2.9,4.7c-0.1,0.1-0.2,0.1-0.3,0.2c-1.7,1-3.4,0-3.4,0l0,0v0.1c0,0-1.3,3.6-2.8,4.7
		c-0.1,0.1-0.2,0.2-0.3,0.2c-1.7,0.8-3.3,0.1-3.3,0.1l0,0v0.1c0,0-1.4,3.5-3,4.7c-0.2,0.1-0.4,0.2-0.6,0.3c-1.8,0.6-3-0.2-3-0.2l0,0
		v0.1c0,0-1.5,3.8-2.9,4.8c-0.1,0.1-0.2,0.1-0.3,0.2c-1.4,0.6-3.3,0-3.3,0l0,0v0.1c0,0-1,3.2-3,4.7c-0.1,0-0.1,0.1-0.2,0.1
		c-2,1.4-3.3,0-3.3-0.1v-0.1v0.1c0,0-1.5,3.8-2.9,4.9c-0.1,0-0.1,0.1-0.2,0.1c-1.6,0.9-3.4,0.2-3.4,0.2l0,0v0.1c0,0-1,2.9-3,4.5
		l-0.1,0.1C423,76.1,421.5,74.7,421.5,74.7L421.5,74.7"/>
	
		<linearGradient id="SVGID_00000038399394897027124040000000660903041543047085_" gradientUnits="userSpaceOnUse" x1="333.2" y1="728.2" x2="333.2" y2="728.2" gradientTransform="matrix(1 0 0 1 0 -584)">
		<stop  offset="5.600000e-03" style="stop-color:#94CDE9"/>
		<stop  offset="1" style="stop-color:#00A2CF"/>
	</linearGradient>
	<path style="fill:url(#SVGID_00000038399394897027124040000000660903041543047085_);stroke:#007198;stroke-width:0.5;" d="
		M333.2,144.2L333.2,144.2L333.2,144.2L333.2,144.2L333.2,144.2z"/>
	
		<linearGradient id="SVGID_00000173854449205721702020000015070263347896551061_" gradientUnits="userSpaceOnUse" x1="333.2" y1="728.2" x2="333.2" y2="728.2" gradientTransform="matrix(1 0 0 1 0 -584)">
		<stop  offset="5.600000e-03" style="stop-color:#94CDE9"/>
		<stop  offset="1" style="stop-color:#00A2CF"/>
	</linearGradient>
	<path style="fill:url(#SVGID_00000173854449205721702020000015070263347896551061_);stroke:#007198;stroke-width:0.5;" d="
		M333.2,144.2L333.2,144.2L333.2,144.2L333.2,144.2z"/>
	
		<linearGradient id="SVGID_00000023241706660039143460000016884563631383322524_" gradientUnits="userSpaceOnUse" x1="333.2" y1="728.2" x2="333.2" y2="728.2" gradientTransform="matrix(1 0 0 1 0 -584)">
		<stop  offset="5.600000e-03" style="stop-color:#94CDE9"/>
		<stop  offset="1" style="stop-color:#00A2CF"/>
	</linearGradient>
	<path style="fill:url(#SVGID_00000023241706660039143460000016884563631383322524_);stroke:#007198;stroke-width:0.5;" d="
		M333.2,144.2L333.2,144.2L333.2,144.2z"/>
	<path class="st8" d="M467.2,93c-1.6,1.9-4.5,3.5-6.7,5.4c-16.9,14.1-34.2,23.6-52.1,36.7c-14.1,10.5-25.2,21.4-39.3,31.6
		c-12.3,8.8-23.5,20.9-35.8,28.6v9.7l167-129.7v-8.1c-3.4,1.7-6.9,3.5-9.8,6C482.2,80.5,474.5,84.7,467.2,93L467.2,93z"/>
	
		<linearGradient id="SVGID_00000029037821590684130190000011335941885883530422_" gradientUnits="userSpaceOnUse" x1="333.2" y1="728.2375" x2="333.2" y2="728.2375" gradientTransform="matrix(1 0 0 1 0 -584)">
		<stop  offset="5.600000e-03" style="stop-color:#94CDE9"/>
		<stop  offset="1" style="stop-color:#00A2CF"/>
	</linearGradient>
	<path style="fill:url(#SVGID_00000029037821590684130190000011335941885883530422_);stroke:#007198;stroke-width:0.5;" d="
		M333.2,144.2C333.2,144.3,333.2,144.3,333.2,144.2L333.2,144.2L333.2,144.2z"/>
	
		<linearGradient id="SVGID_00000182488590901717606290000000814356230383195813_" gradientUnits="userSpaceOnUse" x1="333.24" y1="728.2" x2="333.2401" y2="728.2" gradientTransform="matrix(1 0 0 1 0 -584)">
		<stop  offset="5.600000e-03" style="stop-color:#94CDE9"/>
		<stop  offset="1" style="stop-color:#00A2CF"/>
	</linearGradient>
	<path style="fill:url(#SVGID_00000182488590901717606290000000814356230383195813_);stroke:#007198;stroke-width:0.5;" d="
		M333.2,144.2L333.2,144.2L333.2,144.2C333.3,144.2,333.3,144.2,333.2,144.2L333.2,144.2z"/>
	
		<linearGradient id="SVGID_00000017484411540636290710000004733920772487763588_" gradientUnits="userSpaceOnUse" x1="0.3" y1="745.2798" x2="333.3" y2="745.2798" gradientTransform="matrix(1 0 0 1 0 -584)">
		<stop  offset="0" style="stop-color:#AA8D6B"/>
		<stop  offset="1" style="stop-color:#CCB88D"/>
	</linearGradient>
	
		<path style="fill:url(#SVGID_00000017484411540636290710000004733920772487763588_);stroke:#957966;stroke-width:0.5;stroke-linecap:round;stroke-linejoin:round;" d="
		M235.4,163.2c-18.2-0.5-35,11.2-57.2,5.9c-11.2-2.7-17.4-9.8-26.9-14.6c-7.7-3.9-22.6-7.1-22.6-7.1s-13.6-2.9-29.1-9.2
		c-11-4.5-35-7-40.4-9.6c-12.9-6.2-18.2-10.5-29.2-11s-29.7,3.8-29.7,3.8V205h333v-9.7C292,196.5,257.9,163.8,235.4,163.2
		L235.4,163.2z"/>
</g>
<g id="icons_00000176740489838140907000000000582156950804120705_">
	<path id="people-group" d="M86.9,42.4c0,3.9-3.2,7.1-7.1,7.1s-7.1-3.2-7.1-7.1s3.2-7.1,7.1-7.1C83.7,35.3,86.9,38.5,86.9,42.4z
		 M71.7,62.4c-1.3,1.4-2,3.3-2,5.4s0.8,3.9,2,5.4V62.4z M90,56.1c-3.8,3.3-6.1,8.2-6.1,13.6c0,4.3,1.5,8.3,4.1,11.5V84
		c0,2.2-1.8,4.1-4.1,4.1h-8.1c-2.2,0-4.1-1.8-4.1-4.1v-3.4c-4.8-2.3-8.1-7.2-8.1-12.8c0-7.8,6.3-14.2,14.2-14.2h4.1
		C84.9,53.6,87.7,54.5,90,56.1L90,56.1z M120.3,84v-2.7c2.5-3.1,4.1-7.1,4.1-11.5c0-5.4-2.4-10.3-6.1-13.6c2.3-1.6,5.1-2.6,8.2-2.6
		h4.1c7.8,0,14.2,6.3,14.2,14.2c0,5.7-3.3,10.5-8.1,12.8V84c0,2.2-1.8,4.1-4.1,4.1h-8.1C122.2,88,120.3,86.2,120.3,84z M135.5,42.4
		c0,3.9-3.2,7.1-7.1,7.1c-3.9,0-7.1-3.2-7.1-7.1s3.2-7.1,7.1-7.1C132.4,35.3,135.5,38.5,135.5,42.4z M136.6,62.4v10.7
		c1.3-1.4,2-3.3,2-5.4S137.8,63.8,136.6,62.4L136.6,62.4z M104.1,51.5c-4.5,0-8.1-3.6-8.1-8.1s3.6-8.1,8.1-8.1s8.1,3.6,8.1,8.1
		S108.6,51.5,104.1,51.5z M94,69.8c0,2.1,0.8,3.9,2,5.4V64.4C94.8,65.8,94,67.7,94,69.8z M112.2,64.4v10.7c1.3-1.4,2-3.3,2-5.4
		C114.3,67.7,113.5,65.8,112.2,64.4L112.2,64.4z M120.3,69.8c0,5.7-3.3,10.5-8.1,12.8V88c0,2.2-1.8,4.1-4.1,4.1H100
		c-2.2,0-4.1-1.8-4.1-4.1v-5.4c-4.8-2.3-8.1-7.2-8.1-12.8c0-7.8,6.3-14.2,14.2-14.2h4.1C114,55.6,120.3,61.9,120.3,69.8z"/>
	<path id="whale" d="M249.1,118.6c-0.1-0.5-0.5-1-1-1.1c-0.5-0.2-1.1,0-1.5,0.4l-3.7,3.7c-1.6,1.6-2.4,4-2,6.3l0.7,4.3l-4.5,4.5
		c-2.5,2.5-3.9,5.9-3.9,9.5c0,8.1,6.5,14.6,14.6,14.6h34.4c4.8,0,8.6-3.9,8.6-8.6v-10.1c0-7.2-5.8-13-13-13
		c-7.4,0-14.6,2.7-20.3,7.5l-10.3,8.8c-0.7,0.6-1.6,1-2.6,1h-0.1c-1.6,0-3.1-1.1-3.6-2.6c-0.4-1.1-0.2-2.3,0.4-3.2l3.4-5.4l4,0.7
		c2.3,0.4,4.6-0.4,6.3-2l3.7-3.7c0.4-0.4,0.5-0.9,0.4-1.5s-0.6-0.9-1.1-1l-7.6-1.3L249.1,118.6z M269.3,146.9c-1.2,0-2.2-1-2.2-2.2
		s1-2.2,2.2-2.2s2.2,1,2.2,2.2S270.5,146.9,269.3,146.9z"/>
	<path id="wind-turbine" d="M370.6,81.7c1.8,2.9,6.2,1.3,5.7-2.1l-5.5-37c-0.1-0.7,0-1.3,0.3-1.9l17.9-33c1.6-2.9-2-6-4.6-3.9
		L355,27.1c-0.5,0.4-1.2,0.7-1.8,0.7l-37.4,1c-3.4,0.1-4.2,4.7-1,5.9l34.8,13.8c0.6,0.3,1.1,0.7,1.5,1.3L370.6,81.7z M353,64.7v26.4
		h-13.9c-2.6,0-4.6,2.1-4.6,4.6c0,2.6,2.1,4.6,4.6,4.6h40.1c2.6,0,4.6-2.1,4.6-4.6c0-2.6-2.1-4.6-4.6-4.6h-13.9v-6.4L353,64.7z
		 M359.1,43.3c-2.6,0-4.6-2.1-4.6-4.6c0-2.6,2.1-4.6,4.6-4.6s4.6,2.1,4.6,4.6C363.7,41.3,361.7,43.3,359.1,43.3z"/>
</g>
</svg>
